<?xml version="1.0" encoding="utf-8"?>
<!-- Generator: Adobe Illustrator 17.1.0, SVG Export Plug-In . SVG Version: 6.00 Build 0)  -->
<!DOCTYPE svg PUBLIC "-//W3C//DTD SVG 1.1//EN" "http://www.w3.org/Graphics/SVG/1.1/DTD/svg11.dtd">
<svg version="1.1" id="Layer_1" xmlns="http://www.w3.org/2000/svg" xmlns:xlink="http://www.w3.org/1999/xlink" x="0px" y="0px"
	 viewBox="0 0 283.5 283.5" enable-background="new 0 0 283.5 283.5" xml:space="preserve">
<path fill="#FFFFFF" d="M257.4,79.4c0-11.4-10.5-20.7-23.5-20.7c0,0-52.9-5.4-91.6-5.4s-91.6,5.4-91.6,5.4c-13,0-23.5,9.3-23.5,20.7
	c0,0-5.7,11.9-5.7,55c0,43.1,5.7,57.8,5.7,57.8c0,11.4,10.5,20.7,23.5,20.7c0,0,49.1,6,91.6,6s91.6-6,91.6-6
	c13,0,23.5-9.3,23.5-20.7c0,0,4.5-27.7,4.5-56.1S257.4,79.4,257.4,79.4z M177.4,141.8l-46,33.2c-4.6,3.3-11.1,0-11.1-5.7V103
	c0-5.7,6.5-9,11.1-5.7l46,33.2C181.2,133.2,181.2,139,177.4,141.8z"/>
</svg>
